# xmcd
#
# Track frame offsets: 
#        150
#        17720
#        31845
#        44975
#        58637
#        72673
#        85794
#        100560
#        115556
#        130810
#        142590
#        147331
#        149107
#        163869
#        182388
#        196793
#        213136
#        227152
#        245725
#        258126
#        276610
#        292153
#        306421
#
# Disc length: 4298 seconds
#
# Revision: 2
# Processed by: cddbd v1.5.2PL0 Copyright (c) Steve Scherf et al.
# Submitted via: ExactAudioCopy v0.99pb4
#
DISCID=5d10c817
DTITLE=Lobo - Introducting Lobo - Of A Simple Man
DYEAR=1972
DGENRE=Country
TTITLE0=Intro-Country Feelings - Me And You And A Dog Named Boo
TTITLE1=The Albatross
TTITLE2=We'll Make It... I Know We Will
TTITLE3=A Little Different
TTITLE4=Reaching Out For Someone
TTITLE5=She Didn't Do Magic
TTITLE6=Little Joe (They're Out To Get Ya)
TTITLE7=I'm The Only One
TTITLE8=We'll Be One By Two Today
TTITLE9=Another Hill To Climb
TTITLE10=Reprise-Country Feelings
TTITLE11=Intro
TTITLE12=There Ain't No Way
TTITLE13=A Big Red Kite
TTITLE14=Recycle Sally
TTITLE15=Don't Expect Me To Be Your Friend
TTITLE16=A Simple Man
TTITLE17=I'd Love You To Want Me
TTITLE18=Let Me Down Easy
TTITLE19=Pee-Ro Juan Valdez Sam Quixote
TTITLE20=Running Deer
TTITLE21=Gypsy And The Midnight Ghost
TTITLE22=Am I True To Myself
EXTD=YEAR: 1972
EXTT0=
EXTT1=
EXTT2=
EXTT3=
EXTT4=
EXTT5=
EXTT6=
EXTT7=
EXTT8=
EXTT9=
EXTT10=
EXTT11=
EXTT12=
EXTT13=
EXTT14=
EXTT15=
EXTT16=
EXTT17=
EXTT18=
EXTT19=
EXTT20=
EXTT21=
EXTT22=
PLAYORDER=
